<svg xmlns="http://www.w3.org/2000/svg" viewBox="0 0 1024 1024" width="1024" height="1024">
  <g transform="translate(102.4, 102.4) scale(0.8)">
    <!-- 下面是你的原图内容，完全不动 -->
    <rect width="1024" height="1024" rx="216" fill="#0D47A1"/>
    <ellipse cx="512" cy="260" rx="230" ry="120" fill="#ffffff" opacity="0.05"/>
    <path d="M200 420 Q200 130 512 130 Q824 130 824 420 Q824 500 512 500 Q200 500 200 420Z" fill="#ffffff"/>
    <path d="M310 450 Q285 600 310 780 Q325 870 380 870" fill="none" stroke="#ffffff" stroke-width="40" stroke-linecap="round"/>
    <path d="M380 870 Q460 860 450 780 Q440 690 380 680 Q330 670 315 620" fill="none" stroke="#ffffff" stroke-width="34" stroke-linecap="round"/>
    <path d="M315 620 Q340 600 360 615" fill="none" stroke="#ffffff" stroke-width="18" stroke-linecap="round" opacity="0.55"/>
    <path d="M590 460 Q570 640 600 810 Q620 875 590 890" fill="none" stroke="#ffffff" stroke-width="36" stroke-linecap="round"/>
    <path d="M770 460 Q800 630 775 800 Q755 870 780 890" fill="none" stroke="#ffffff" stroke-width="36" stroke-linecap="round"/>
    <path d="M596 660 Q685 715 774 660" fill="none" stroke="#ffffff" stroke-width="28" stroke-linecap="round"/>
    <path d="M200 460 Q175 640 210 840" fill="none" stroke="#ffffff" stroke-width="10" stroke-linecap="round" opacity="0.3"/>
    <path d="M500 470 Q485 680 510 860" fill="none" stroke="#ffffff" stroke-width="11" stroke-linecap="round" opacity="0.3"/>
    <path d="M840 460 Q865 620 830 820" fill="none" stroke="#ffffff" stroke-width="9" stroke-linecap="round" opacity="0.28"/>
    <circle cx="175" cy="300" r="8" fill="#ffffff" opacity="0.18"/>
    <circle cx="860" cy="260" r="7" fill="#ffffff" opacity="0.16"/>
    <circle cx="540" cy="100" r="9" fill="#ffffff" opacity="0.12"/>
    <circle cx="460" cy="900" r="8" fill="#ffffff" opacity="0.14"/>
  </g>
</svg>